<?xml version="1.0" encoding="UTF-8"?>
<svg width="209px" height="26px" viewBox="0 0 209 26" version="1.1" xmlns="http://www.w3.org/2000/svg" xmlns:xlink="http://www.w3.org/1999/xlink">
    <title>CommerceExplorerLogo</title>
    <g id="CommerceExplorerLogo" stroke="none" stroke-width="1" fill="none" fillRule="evenodd">
        <rect fill="#FFFFFF" x="0" y="0" width="209" height="26"></rect>
        <g id="Group" fill="#FA0F00" fillRule="nonzero">
            <polygon id="Path" points="19.0909091 0 30 0 30 25.7142857"></polygon>
            <polygon id="Path" points="10.9090909 0 0 0 0 25.7142857"></polygon>
            <polygon id="Path" points="14.9025968 9.47368421 21.8181818 25.7142857 17.3376601 25.7142857 15.2922016 20.5648342 10.2272727 20.5648342"></polygon>
        </g>
        <g id="Commerce-Explorer" transform="translate(38.76, 5.7)" fill="#000000" fillRule="nonzero">
            <path d="M9.64,12.46 C9.64,12.36 9.6,12.36 9.52,12.38 C8.78,12.66 8.04,12.72 7.04,12.72 C4.94,12.72 2.02,11.54 2.02,7.64 C2.02,4.6 4.02,2.66 7.04,2.66 C8.12,2.66 9.04,2.82 9.62,3.1 C9.68,3.14 9.76,3.14 9.76,3 L9.76,1.46 C9.76,1.34 9.74,1.3 9.66,1.26 C9.2,1.04 8.4,0.92 7.08,0.92 C2.78,0.92 -7.10542736e-15,3.7 -7.10542736e-15,7.7 C-7.10542736e-15,12.46 3.32,14.5 6.82,14.5 C7.94,14.5 8.88,14.4 9.52,14.12 C9.62,14.1 9.64,14.02 9.64,13.9 L9.64,12.46 Z" id="Path"></path>
            <path d="M15.68,4.34 C12.8,4.34 10.96,6.6 10.96,9.42 C10.96,11.9 12.4,14.5 15.66,14.5 C18.4,14.5 20.3,12.44 20.3,9.38 C20.3,6.56 18.6,4.34 15.68,4.34 Z M15.58,6 C17.52,6 18.32,7.64 18.32,9.44 C18.32,11.74 17.06,12.84 15.7,12.84 C13.96,12.84 12.94,11.34 12.94,9.38 C12.94,7.32 14.04,6 15.58,6 Z" id="Shape"></path>
            <path d="M24.16,14.3 C24.26,14.3 24.28,14.26 24.28,14.16 L24.28,7.02 C24.98,6.36 25.64,6.04 26.5,6.04 C27.72,6.04 28.38,6.84 28.38,8.28 L28.38,14.14 C28.38,14.26 28.42,14.3 28.54,14.3 L30.2,14.3 C30.3,14.3 30.34,14.24 30.34,14.14 L30.34,8.3 C30.34,7.86 30.3,7.3 30.24,7.06 C30.84,6.44 31.6,6.04 32.52,6.04 C33.86,6.04 34.42,7.06 34.42,8.34 L34.42,14.14 C34.42,14.26 34.46,14.3 34.56,14.3 L36.22,14.3 C36.32,14.3 36.38,14.26 36.38,14.16 L36.38,8.18 C36.38,5.14 34.64,4.34 33.08,4.34 C31.66,4.34 30.6,4.94 29.76,5.74 C29.22,4.78 28.32,4.34 27.14,4.34 C26.04,4.34 25.08,4.7 24.16,5.54 C24.14,5.2 24.1,4.82 24.04,4.64 C23.98,4.56 23.96,4.52 23.86,4.52 L22.38,4.52 C22.28,4.52 22.24,4.58 22.24,4.66 C22.28,5.04 22.32,5.8 22.32,6.64 L22.32,14.14 C22.32,14.26 22.36,14.3 22.46,14.3 L24.16,14.3 Z" id="Path"></path>
            <path d="M40.92,14.3 C41.02,14.3 41.04,14.26 41.04,14.16 L41.04,7.02 C41.74,6.36 42.4,6.04 43.26,6.04 C44.48,6.04 45.14,6.84 45.14,8.28 L45.14,14.14 C45.14,14.26 45.18,14.3 45.3,14.3 L46.96,14.3 C47.06,14.3 47.1,14.24 47.1,14.14 L47.1,8.3 C47.1,7.86 47.06,7.3 47,7.06 C47.6,6.44 48.36,6.04 49.28,6.04 C50.62,6.04 51.18,7.06 51.18,8.34 L51.18,14.14 C51.18,14.26 51.22,14.3 51.32,14.3 L52.98,14.3 C53.08,14.3 53.14,14.26 53.14,14.16 L53.14,8.18 C53.14,5.14 51.4,4.34 49.84,4.34 C48.42,4.34 47.36,4.94 46.52,5.74 C45.98,4.78 45.08,4.34 43.9,4.34 C42.8,4.34 41.84,4.7 40.92,5.54 C40.9,5.2 40.86,4.82 40.8,4.64 C40.74,4.56 40.72,4.52 40.62,4.52 L39.14,4.52 C39.04,4.52 39,4.58 39,4.66 C39.04,5.04 39.08,5.8 39.08,6.64 L39.08,14.14 C39.08,14.26 39.12,14.3 39.22,14.3 L40.92,14.3 Z" id="Path"></path>
            <path d="M61.4,9.76 C62.32,9.76 63.16,9.72 63.46,9.68 C63.54,9.66 63.6,9.62 63.6,9.54 C63.64,9.34 63.68,8.94 63.68,8.42 C63.68,6.64 62.6,4.34 59.7,4.34 C56.82,4.34 55.16,6.72 55.16,9.5 C55.16,11.96 56.44,14.5 59.98,14.5 C61.26,14.5 62.16,14.28 62.86,13.92 C62.94,13.88 62.96,13.82 62.96,13.72 L62.96,12.38 C62.96,12.28 62.92,12.26 62.86,12.3 C62.08,12.66 61.26,12.8 60.38,12.8 C58.18,12.8 57.16,11.46 57.16,9.76 L61.4,9.76 Z M57.16,8.32 C57.34,7.12 58.08,5.92 59.62,5.92 C61.38,5.92 61.82,7.42 61.82,8.1 C61.82,8.14 61.82,8.24 61.82,8.28 C61.74,8.3 61.5,8.32 60.6,8.32 L57.16,8.32 Z" id="Shape"></path>
            <path d="M65.64,4.52 C65.54,4.52 65.52,4.56 65.52,4.64 C65.6,5.24 65.64,6.4 65.64,7.24 L65.64,14.14 C65.64,14.26 65.66,14.3 65.78,14.3 L67.46,14.3 C67.56,14.3 67.6,14.26 67.6,14.16 L67.6,7.6 C68.1,6.88 69.32,6.28 70.72,6.3 C70.84,6.3 70.88,6.26 70.88,6.18 L70.88,4.46 C70.88,4.36 70.84,4.34 70.74,4.34 C69.4,4.34 68.2,5.06 67.52,5.98 C67.5,5.56 67.42,4.92 67.34,4.66 C67.3,4.56 67.26,4.52 67.16,4.52 L65.64,4.52 Z" id="Path"></path>
            <path d="M78.84,12.58 C78.84,12.52 78.82,12.48 78.72,12.5 C78.26,12.66 77.64,12.74 76.92,12.74 C75.16,12.74 73.54,11.7 73.54,9.38 C73.54,7.3 74.94,6.04 76.9,6.04 C77.7,6.04 78.22,6.14 78.7,6.32 C78.76,6.34 78.84,6.34 78.84,6.22 L78.86,4.76 C78.86,4.66 78.84,4.6 78.76,4.58 C78.44,4.44 77.88,4.34 76.86,4.34 C73.66,4.34 71.54,6.52 71.54,9.46 C71.54,12.22 73.32,14.5 76.56,14.5 C77.32,14.5 78.1,14.44 78.76,14.18 C78.84,14.16 78.84,14.12 78.84,14.04 L78.84,12.58 Z" id="Path"></path>
            <path d="M86.24,9.76 C87.16,9.76 88,9.72 88.3,9.68 C88.38,9.66 88.44,9.62 88.44,9.54 C88.48,9.34 88.52,8.94 88.52,8.42 C88.52,6.64 87.44,4.34 84.54,4.34 C81.66,4.34 80,6.72 80,9.5 C80,11.96 81.28,14.5 84.82,14.5 C86.1,14.5 87,14.28 87.7,13.92 C87.78,13.88 87.8,13.82 87.8,13.72 L87.8,12.38 C87.8,12.28 87.76,12.26 87.7,12.3 C86.92,12.66 86.1,12.8 85.22,12.8 C83.02,12.8 82,11.46 82,9.76 L86.24,9.76 Z M82,8.32 C82.18,7.12 82.92,5.92 84.46,5.92 C86.22,5.92 86.66,7.42 86.66,8.1 C86.66,8.14 86.66,8.24 86.66,8.28 C86.58,8.3 86.34,8.32 85.44,8.32 L82,8.32 Z" id="Shape"></path>
            <path d="M103.58,12.66 C103.6,12.56 103.58,12.52 103.46,12.52 L97.24,12.52 L97.24,8.46 L102.54,8.46 C102.62,8.46 102.68,8.42 102.68,8.32 L102.68,6.8 C102.68,6.7 102.64,6.68 102.56,6.68 L97.24,6.68 L97.24,2.88 L103.1,2.88 C103.2,2.88 103.24,2.82 103.22,2.74 L103.04,1.24 C103.02,1.14 103,1.12 102.88,1.12 L95.42,1.12 C95.32,1.12 95.28,1.16 95.28,1.26 L95.28,14.14 C95.28,14.26 95.3,14.3 95.44,14.3 L103.18,14.3 C103.28,14.3 103.32,14.28 103.34,14.16 L103.58,12.66 Z" id="Path"></path>
            <path d="M107.12,9.42 C106.24,10.7 104.86,12.84 103.98,14.14 C103.92,14.22 103.96,14.3 104.06,14.3 L105.8,14.3 C105.92,14.3 105.96,14.28 106,14.2 L108.3,10.46 L108.32,10.46 L110.6,14.16 C110.66,14.26 110.72,14.3 110.82,14.3 L112.82,14.3 C112.94,14.3 112.96,14.22 112.9,14.14 C112.2,13.16 110.44,10.58 109.62,9.32 C110.46,8.16 111.98,5.82 112.74,4.68 C112.8,4.6 112.76,4.52 112.66,4.52 L110.94,4.52 C110.84,4.52 110.82,4.54 110.76,4.62 L108.5,8.3 L108.46,8.3 L106.3,4.64 C106.24,4.56 106.22,4.52 106.08,4.52 L104.16,4.52 C104.04,4.52 104.02,4.62 104.06,4.68 L107.12,9.42 Z" id="Path"></path>
            <path d="M118.04,4.34 C116.32,4.34 114.96,4.86 114.2,5.12 C114.14,5.14 114.14,5.2 114.14,5.22 C114.16,5.48 114.18,6 114.18,6.2 L114.18,18.48 C114.18,18.58 114.22,18.6 114.3,18.6 C114.4,18.6 115.48,18.48 116.02,18.42 C116.12,18.4 116.14,18.36 116.14,18.28 L116.14,14.44 C116.38,14.48 116.62,14.5 116.98,14.5 C119.9,14.5 122.82,12.72 122.82,9.08 C122.82,6.44 121.14,4.34 118.04,4.34 Z M117.82,6.02 C119.74,6.02 120.82,7.24 120.82,9.2 C120.82,11.72 118.94,12.84 117.16,12.84 C116.82,12.84 116.44,12.82 116.14,12.74 L116.14,6.3 C116.66,6.12 117.2,6.02 117.82,6.02 Z" id="Shape"></path>
            <path d="M124.84,12.14 C124.84,14.1 125.82,14.5 126.92,14.5 C127.4,14.5 127.72,14.44 127.92,14.36 C128.02,14.32 128.04,14.28 128.04,14.16 L128.04,12.94 C128.04,12.86 128.02,12.82 127.94,12.84 C127.78,12.86 127.7,12.88 127.56,12.88 C127.08,12.88 126.8,12.68 126.8,11.98 L126.8,0.14 C126.8,0.04 126.76,0 126.66,0 L125,0 C124.9,0 124.84,0.04 124.84,0.14 L124.84,12.14 Z" id="Path"></path>
            <path d="M133.88,4.34 C131,4.34 129.16,6.6 129.16,9.42 C129.16,11.9 130.6,14.5 133.86,14.5 C136.6,14.5 138.5,12.44 138.5,9.38 C138.5,6.56 136.8,4.34 133.88,4.34 Z M133.78,6 C135.72,6 136.52,7.64 136.52,9.44 C136.52,11.74 135.26,12.84 133.9,12.84 C132.16,12.84 131.14,11.34 131.14,9.38 C131.14,7.32 132.24,6 133.78,6 Z" id="Shape"></path>
            <path d="M140.54,4.52 C140.44,4.52 140.42,4.56 140.42,4.64 C140.5,5.24 140.54,6.4 140.54,7.24 L140.54,14.14 C140.54,14.26 140.56,14.3 140.68,14.3 L142.36,14.3 C142.46,14.3 142.5,14.26 142.5,14.16 L142.5,7.6 C143,6.88 144.22,6.28 145.62,6.3 C145.74,6.3 145.78,6.26 145.78,6.18 L145.78,4.46 C145.78,4.36 145.74,4.34 145.64,4.34 C144.3,4.34 143.1,5.06 142.42,5.98 C142.4,5.56 142.32,4.92 142.24,4.66 C142.2,4.56 142.16,4.52 142.06,4.52 L140.54,4.52 Z" id="Path"></path>
            <path d="M152.66,9.76 C153.58,9.76 154.42,9.72 154.72,9.68 C154.8,9.66 154.86,9.62 154.86,9.54 C154.9,9.34 154.94,8.94 154.94,8.42 C154.94,6.64 153.86,4.34 150.96,4.34 C148.08,4.34 146.42,6.72 146.42,9.5 C146.42,11.96 147.7,14.5 151.24,14.5 C152.52,14.5 153.42,14.28 154.12,13.92 C154.2,13.88 154.22,13.82 154.22,13.72 L154.22,12.38 C154.22,12.28 154.18,12.26 154.12,12.3 C153.34,12.66 152.52,12.8 151.64,12.8 C149.44,12.8 148.42,11.46 148.42,9.76 L152.66,9.76 Z M148.42,8.32 C148.6,7.12 149.34,5.92 150.88,5.92 C152.64,5.92 153.08,7.42 153.08,8.1 C153.08,8.14 153.08,8.24 153.08,8.28 C153,8.3 152.76,8.32 151.86,8.32 L148.42,8.32 Z" id="Shape"></path>
            <path d="M156.9,4.52 C156.8,4.52 156.78,4.56 156.78,4.64 C156.86,5.24 156.9,6.4 156.9,7.24 L156.9,14.14 C156.9,14.26 156.92,14.3 157.04,14.3 L158.72,14.3 C158.82,14.3 158.86,14.26 158.86,14.16 L158.86,7.6 C159.36,6.88 160.58,6.28 161.98,6.3 C162.1,6.3 162.14,6.26 162.14,6.18 L162.14,4.46 C162.14,4.36 162.1,4.34 162,4.34 C160.66,4.34 159.46,5.06 158.78,5.98 C158.76,5.56 158.68,4.92 158.6,4.66 C158.56,4.56 158.52,4.52 158.42,4.52 L156.9,4.52 Z" id="Path"></path>
        </g>
    </g>
</svg>