<?xml version="1.0" encoding="UTF-8"?>
<svg width="242px" height="30px" viewBox="0 0 242 30" version="1.1" xmlns="http://www.w3.org/2000/svg" xmlns:xlink="http://www.w3.org/1999/xlink">
    <title>CommerceExplorerLogo</title>
    <g id="CommerceExplorerLogo" stroke="none" stroke-width="1" fill="none" fillRule="evenodd">
        <rect fill="#FFFFFF" x="0" y="0" width="242" height="30"></rect>
        <g id="Group" fill="#FA0F00" fillRule="nonzero">
            <polygon id="Path" points="22.2727273 0 35 0 35 30"></polygon>
            <polygon id="Path" points="12.7272727 0 0 0 0 30"></polygon>
            <polygon id="Path" points="17.386363 11.0526316 25.4545455 30 20.2272701 30 17.8409019 23.9923065 11.9318182 23.9923065"></polygon>
        </g>
        <g id="Commerce-Explorer" transform="translate(44.912, 5.84)" fill="#000000" fillRule="nonzero">
            <path d="M11.568,14.952 C11.568,14.832 11.52,14.832 11.424,14.856 C10.536,15.192 9.648,15.264 8.448,15.264 C5.928,15.264 2.424,13.848 2.424,9.168 C2.424,5.52 4.824,3.192 8.448,3.192 C9.744,3.192 10.848,3.384 11.544,3.72 C11.616,3.768 11.712,3.768 11.712,3.6 L11.712,1.752 C11.712,1.608 11.688,1.56 11.592,1.512 C11.04,1.248 10.08,1.104 8.496,1.104 C3.336,1.104 -7.10542736e-15,4.44 -7.10542736e-15,9.24 C-7.10542736e-15,14.952 3.984,17.4 8.184,17.4 C9.528,17.4 10.656,17.28 11.424,16.944 C11.544,16.92 11.568,16.824 11.568,16.68 L11.568,14.952 Z" id="Path"></path>
            <path d="M18.816,5.208 C15.36,5.208 13.152,7.92 13.152,11.304 C13.152,14.28 14.88,17.4 18.792,17.4 C22.08,17.4 24.36,14.928 24.36,11.256 C24.36,7.872 22.32,5.208 18.816,5.208 Z M18.696,7.2 C21.024,7.2 21.984,9.168 21.984,11.328 C21.984,14.088 20.472,15.408 18.84,15.408 C16.752,15.408 15.528,13.608 15.528,11.256 C15.528,8.784 16.848,7.2 18.696,7.2 Z" id="Shape"></path>
            <path d="M28.992,17.16 C29.112,17.16 29.136,17.112 29.136,16.992 L29.136,8.424 C29.976,7.632 30.768,7.248 31.8,7.248 C33.264,7.248 34.056,8.208 34.056,9.936 L34.056,16.968 C34.056,17.112 34.104,17.16 34.248,17.16 L36.24,17.16 C36.36,17.16 36.408,17.088 36.408,16.968 L36.408,9.96 C36.408,9.432 36.36,8.76 36.288,8.472 C37.008,7.728 37.92,7.248 39.024,7.248 C40.632,7.248 41.304,8.472 41.304,10.008 L41.304,16.968 C41.304,17.112 41.352,17.16 41.472,17.16 L43.464,17.16 C43.584,17.16 43.656,17.112 43.656,16.992 L43.656,9.816 C43.656,6.168 41.568,5.208 39.696,5.208 C37.992,5.208 36.72,5.928 35.712,6.888 C35.064,5.736 33.984,5.208 32.568,5.208 C31.248,5.208 30.096,5.64 28.992,6.648 C28.968,6.24 28.92,5.784 28.848,5.568 C28.776,5.472 28.752,5.424 28.632,5.424 L26.856,5.424 C26.736,5.424 26.688,5.496 26.688,5.592 C26.736,6.048 26.784,6.96 26.784,7.968 L26.784,16.968 C26.784,17.112 26.832,17.16 26.952,17.16 L28.992,17.16 Z" id="Path"></path>
            <path d="M49.104,17.16 C49.224,17.16 49.248,17.112 49.248,16.992 L49.248,8.424 C50.088,7.632 50.88,7.248 51.912,7.248 C53.376,7.248 54.168,8.208 54.168,9.936 L54.168,16.968 C54.168,17.112 54.216,17.16 54.36,17.16 L56.352,17.16 C56.472,17.16 56.52,17.088 56.52,16.968 L56.52,9.96 C56.52,9.432 56.472,8.76 56.4,8.472 C57.12,7.728 58.032,7.248 59.136,7.248 C60.744,7.248 61.416,8.472 61.416,10.008 L61.416,16.968 C61.416,17.112 61.464,17.16 61.584,17.16 L63.576,17.16 C63.696,17.16 63.768,17.112 63.768,16.992 L63.768,9.816 C63.768,6.168 61.68,5.208 59.808,5.208 C58.104,5.208 56.832,5.928 55.824,6.888 C55.176,5.736 54.096,5.208 52.68,5.208 C51.36,5.208 50.208,5.64 49.104,6.648 C49.08,6.24 49.032,5.784 48.96,5.568 C48.888,5.472 48.864,5.424 48.744,5.424 L46.968,5.424 C46.848,5.424 46.8,5.496 46.8,5.592 C46.848,6.048 46.896,6.96 46.896,7.968 L46.896,16.968 C46.896,17.112 46.944,17.16 47.064,17.16 L49.104,17.16 Z" id="Path"></path>
            <path d="M73.68,11.712 C74.784,11.712 75.792,11.664 76.152,11.616 C76.248,11.592 76.32,11.544 76.32,11.448 C76.368,11.208 76.416,10.728 76.416,10.104 C76.416,7.968 75.12,5.208 71.64,5.208 C68.184,5.208 66.192,8.064 66.192,11.4 C66.192,14.352 67.728,17.4 71.976,17.4 C73.512,17.4 74.592,17.136 75.432,16.704 C75.528,16.656 75.552,16.584 75.552,16.464 L75.552,14.856 C75.552,14.736 75.504,14.712 75.432,14.76 C74.496,15.192 73.512,15.36 72.456,15.36 C69.816,15.36 68.592,13.752 68.592,11.712 L73.68,11.712 Z M68.592,9.984 C68.808,8.544 69.696,7.104 71.544,7.104 C73.656,7.104 74.184,8.904 74.184,9.72 C74.184,9.768 74.184,9.888 74.184,9.936 C74.088,9.96 73.8,9.984 72.72,9.984 L68.592,9.984 Z" id="Shape"></path>
            <path d="M78.768,5.424 C78.648,5.424 78.624,5.472 78.624,5.568 C78.72,6.288 78.768,7.68 78.768,8.688 L78.768,16.968 C78.768,17.112 78.792,17.16 78.936,17.16 L80.952,17.16 C81.072,17.16 81.12,17.112 81.12,16.992 L81.12,9.12 C81.72,8.256 83.184,7.536 84.864,7.56 C85.008,7.56 85.056,7.512 85.056,7.416 L85.056,5.352 C85.056,5.232 85.008,5.208 84.888,5.208 C83.28,5.208 81.84,6.072 81.024,7.176 C81,6.672 80.904,5.904 80.808,5.592 C80.76,5.472 80.712,5.424 80.592,5.424 L78.768,5.424 Z" id="Path"></path>
            <path d="M94.608,15.096 C94.608,15.024 94.584,14.976 94.464,15 C93.912,15.192 93.168,15.288 92.304,15.288 C90.192,15.288 88.248,14.04 88.248,11.256 C88.248,8.76 89.928,7.248 92.28,7.248 C93.24,7.248 93.864,7.368 94.44,7.584 C94.512,7.608 94.608,7.608 94.608,7.464 L94.632,5.712 C94.632,5.592 94.608,5.52 94.512,5.496 C94.128,5.328 93.456,5.208 92.232,5.208 C88.392,5.208 85.848,7.824 85.848,11.352 C85.848,14.664 87.984,17.4 91.872,17.4 C92.784,17.4 93.72,17.328 94.512,17.016 C94.608,16.992 94.608,16.944 94.608,16.848 L94.608,15.096 Z" id="Path"></path>
            <path d="M103.488,11.712 C104.592,11.712 105.6,11.664 105.96,11.616 C106.056,11.592 106.128,11.544 106.128,11.448 C106.176,11.208 106.224,10.728 106.224,10.104 C106.224,7.968 104.928,5.208 101.448,5.208 C97.992,5.208 96,8.064 96,11.4 C96,14.352 97.536,17.4 101.784,17.4 C103.32,17.4 104.4,17.136 105.24,16.704 C105.336,16.656 105.36,16.584 105.36,16.464 L105.36,14.856 C105.36,14.736 105.312,14.712 105.24,14.76 C104.304,15.192 103.32,15.36 102.264,15.36 C99.624,15.36 98.4,13.752 98.4,11.712 L103.488,11.712 Z M98.4,9.984 C98.616,8.544 99.504,7.104 101.352,7.104 C103.464,7.104 103.992,8.904 103.992,9.72 C103.992,9.768 103.992,9.888 103.992,9.936 C103.896,9.96 103.608,9.984 102.528,9.984 L98.4,9.984 Z" id="Shape"></path>
            <path d="M124.296,15.192 C124.32,15.072 124.296,15.024 124.152,15.024 L116.688,15.024 L116.688,10.152 L123.048,10.152 C123.144,10.152 123.216,10.104 123.216,9.984 L123.216,8.16 C123.216,8.04 123.168,8.016 123.072,8.016 L116.688,8.016 L116.688,3.456 L123.72,3.456 C123.84,3.456 123.888,3.384 123.864,3.288 L123.648,1.488 C123.624,1.368 123.6,1.344 123.456,1.344 L114.504,1.344 C114.384,1.344 114.336,1.392 114.336,1.512 L114.336,16.968 C114.336,17.112 114.36,17.16 114.528,17.16 L123.816,17.16 C123.936,17.16 123.984,17.136 124.008,16.992 L124.296,15.192 Z" id="Path"></path>
            <path d="M128.544,11.304 C127.488,12.84 125.832,15.408 124.776,16.968 C124.704,17.064 124.752,17.16 124.872,17.16 L126.96,17.16 C127.104,17.16 127.152,17.136 127.2,17.04 L129.96,12.552 L129.984,12.552 L132.72,16.992 C132.792,17.112 132.864,17.16 132.984,17.16 L135.384,17.16 C135.528,17.16 135.552,17.064 135.48,16.968 C134.64,15.792 132.528,12.696 131.544,11.184 C132.552,9.792 134.376,6.984 135.288,5.616 C135.36,5.52 135.312,5.424 135.192,5.424 L133.128,5.424 C133.008,5.424 132.984,5.448 132.912,5.544 L130.2,9.96 L130.152,9.96 L127.56,5.568 C127.488,5.472 127.464,5.424 127.296,5.424 L124.992,5.424 C124.848,5.424 124.824,5.544 124.872,5.616 L128.544,11.304 Z" id="Path"></path>
            <path d="M141.648,5.208 C139.584,5.208 137.952,5.832 137.04,6.144 C136.968,6.168 136.968,6.24 136.968,6.264 C136.992,6.576 137.016,7.2 137.016,7.44 L137.016,22.176 C137.016,22.296 137.064,22.32 137.16,22.32 C137.28,22.32 138.576,22.176 139.224,22.104 C139.344,22.08 139.368,22.032 139.368,21.936 L139.368,17.328 C139.656,17.376 139.944,17.4 140.376,17.4 C143.88,17.4 147.384,15.264 147.384,10.896 C147.384,7.728 145.368,5.208 141.648,5.208 Z M141.384,7.224 C143.688,7.224 144.984,8.688 144.984,11.04 C144.984,14.064 142.728,15.408 140.592,15.408 C140.184,15.408 139.728,15.384 139.368,15.288 L139.368,7.56 C139.992,7.344 140.64,7.224 141.384,7.224 Z" id="Shape"></path>
            <path d="M149.808,14.568 C149.808,16.92 150.984,17.4 152.304,17.4 C152.88,17.4 153.264,17.328 153.504,17.232 C153.624,17.184 153.648,17.136 153.648,16.992 L153.648,15.528 C153.648,15.432 153.624,15.384 153.528,15.408 C153.336,15.432 153.24,15.456 153.072,15.456 C152.496,15.456 152.16,15.216 152.16,14.376 L152.16,0.168 C152.16,0.048 152.112,0 151.992,0 L150,0 C149.88,0 149.808,0.048 149.808,0.168 L149.808,14.568 Z" id="Path"></path>
            <path d="M160.656,5.208 C157.2,5.208 154.992,7.92 154.992,11.304 C154.992,14.28 156.72,17.4 160.632,17.4 C163.92,17.4 166.2,14.928 166.2,11.256 C166.2,7.872 164.16,5.208 160.656,5.208 Z M160.536,7.2 C162.864,7.2 163.824,9.168 163.824,11.328 C163.824,14.088 162.312,15.408 160.68,15.408 C158.592,15.408 157.368,13.608 157.368,11.256 C157.368,8.784 158.688,7.2 160.536,7.2 Z" id="Shape"></path>
            <path d="M168.648,5.424 C168.528,5.424 168.504,5.472 168.504,5.568 C168.6,6.288 168.648,7.68 168.648,8.688 L168.648,16.968 C168.648,17.112 168.672,17.16 168.816,17.16 L170.832,17.16 C170.952,17.16 171,17.112 171,16.992 L171,9.12 C171.6,8.256 173.064,7.536 174.744,7.56 C174.888,7.56 174.936,7.512 174.936,7.416 L174.936,5.352 C174.936,5.232 174.888,5.208 174.768,5.208 C173.16,5.208 171.72,6.072 170.904,7.176 C170.88,6.672 170.784,5.904 170.688,5.592 C170.64,5.472 170.592,5.424 170.472,5.424 L168.648,5.424 Z" id="Path"></path>
            <path d="M183.192,11.712 C184.296,11.712 185.304,11.664 185.664,11.616 C185.76,11.592 185.832,11.544 185.832,11.448 C185.88,11.208 185.928,10.728 185.928,10.104 C185.928,7.968 184.632,5.208 181.152,5.208 C177.696,5.208 175.704,8.064 175.704,11.4 C175.704,14.352 177.24,17.4 181.488,17.4 C183.024,17.4 184.104,17.136 184.944,16.704 C185.04,16.656 185.064,16.584 185.064,16.464 L185.064,14.856 C185.064,14.736 185.016,14.712 184.944,14.76 C184.008,15.192 183.024,15.36 181.968,15.36 C179.328,15.36 178.104,13.752 178.104,11.712 L183.192,11.712 Z M178.104,9.984 C178.32,8.544 179.208,7.104 181.056,7.104 C183.168,7.104 183.696,8.904 183.696,9.72 C183.696,9.768 183.696,9.888 183.696,9.936 C183.6,9.96 183.312,9.984 182.232,9.984 L178.104,9.984 Z" id="Shape"></path>
            <path d="M188.28,5.424 C188.16,5.424 188.136,5.472 188.136,5.568 C188.232,6.288 188.28,7.68 188.28,8.688 L188.28,16.968 C188.28,17.112 188.304,17.16 188.448,17.16 L190.464,17.16 C190.584,17.16 190.632,17.112 190.632,16.992 L190.632,9.12 C191.232,8.256 192.696,7.536 194.376,7.56 C194.52,7.56 194.568,7.512 194.568,7.416 L194.568,5.352 C194.568,5.232 194.52,5.208 194.4,5.208 C192.792,5.208 191.352,6.072 190.536,7.176 C190.512,6.672 190.416,5.904 190.32,5.592 C190.272,5.472 190.224,5.424 190.104,5.424 L188.28,5.424 Z" id="Path"></path>
        </g>
    </g>
</svg>